<?xml version="1.0" standalone="no"?>
<!DOCTYPE svg PUBLIC "-//W3C//DTD SVG 20010904//EN"
 "http://www.w3.org/TR/2001/REC-SVG-20010904/DTD/svg10.dtd">
<svg version="1.0" xmlns="http://www.w3.org/2000/svg"
 width="40.000000pt" height="40.000000pt" viewBox="0 0 40.000000 40.000000"
 preserveAspectRatio="xMidYMid meet">
<metadata>
Created by potrace 1.16, written by Peter Selinger 2001-2019
</metadata>
<g transform="translate(0.000000,40.000000) scale(0.100000,-0.100000)"
fill="#000000" stroke="none">
<path d="M40 240 l0 -110 46 -33 c25 -18 61 -42 80 -52 34 -18 34 -18 76 10
39 26 42 27 55 9 7 -10 13 -25 13 -33 1 -9 7 -2 14 15 8 19 27 36 47 44 33 14
33 14 9 20 -25 6 -25 8 -28 123 l-3 117 -154 0 -155 0 0 -110z m300 4 c0 -61
-4 -93 -10 -89 -5 3 -10 14 -10 23 -1 9 -7 2 -15 -16 -9 -21 -26 -38 -45 -45
-33 -13 -40 -27 -12 -27 15 -1 15 -2 -3 -16 -43 -34 -48 -33 -117 12 l-68 44
0 105 0 105 140 0 140 0 0 -96z"/>
<path d="M157 313 c-4 -3 -7 -15 -7 -25 0 -13 -7 -18 -25 -18 -22 0 -25 -4
-25 -40 0 -36 3 -40 25 -40 20 0 25 -5 25 -25 0 -23 4 -25 45 -25 41 0 45 2
45 24 0 19 6 25 28 28 24 3 27 7 27 38 0 31 -3 35 -27 38 -22 3 -28 9 -28 28
0 21 -4 24 -38 24 -21 0 -42 -3 -45 -7z"/>
</g>
</svg>
